<mxfile host="65bd71144e" modified="2020-10-29T00:17:20.698Z" agent="5.0 (Windows NT 10.0; Win64; x64) AppleWebKit/537.36 (KHTML, like Gecko) Code/1.50.1 Chrome/83.0.4103.122 Electron/9.2.1 Safari/537.36" etag="HwcNXr4NgeM2iPjuuZtn" version="13.6.5">
    <diagram id="C5RBs43oDa-KdzZeNtuy" name="郵寄薪資單">
        <mxGraphModel dx="2471" dy="1023" grid="1" gridSize="10" guides="1" tooltips="1" connect="1" arrows="1" fold="1" page="1" pageScale="1" pageWidth="827" pageHeight="1169" math="0" shadow="0">
            <root>
                <mxCell id="WIyWlLk6GJQsqaUBKTNV-0"/>
                <mxCell id="WIyWlLk6GJQsqaUBKTNV-1" parent="WIyWlLk6GJQsqaUBKTNV-0"/>
                <mxCell id="174" value="" style="group" vertex="1" connectable="0" parent="WIyWlLk6GJQsqaUBKTNV-1">
                    <mxGeometry x="90" y="50" width="630" height="1090" as="geometry"/>
                </mxCell>
                <mxCell id="171" value="" style="group" vertex="1" connectable="0" parent="174">
                    <mxGeometry width="630" height="1090" as="geometry"/>
                </mxCell>
                <mxCell id="168" value="" style="group" vertex="1" connectable="0" parent="171">
                    <mxGeometry width="630" height="1090" as="geometry"/>
                </mxCell>
                <mxCell id="147" value="" style="group" parent="168" vertex="1" connectable="0">
                    <mxGeometry x="344.4899999999999" y="940" width="130" height="40" as="geometry"/>
                </mxCell>
                <mxCell id="90" value="依據工號取得郵件地址" style="rounded=0;whiteSpace=wrap;html=1;" parent="147" vertex="1">
                    <mxGeometry width="130" height="40" as="geometry"/>
                </mxCell>
                <mxCell id="154" value="i&amp;nbsp; = i + 1" style="text;html=1;align=center;verticalAlign=middle;resizable=0;points=[];autosize=1;" parent="168" vertex="1">
                    <mxGeometry x="222.99" y="470" width="60" height="20" as="geometry"/>
                </mxCell>
                <mxCell id="126" value="i&amp;nbsp; = 1" style="text;html=1;align=center;verticalAlign=middle;resizable=0;points=[];autosize=1;" parent="168" vertex="1">
                    <mxGeometry x="95.5" y="450" width="40" height="20" as="geometry"/>
                </mxCell>
                <mxCell id="Tq2fKF2mtne1d_FetfBo-112" value="" style="group" parent="168" vertex="1" connectable="0">
                    <mxGeometry y="40" width="630" height="1050" as="geometry"/>
                </mxCell>
                <mxCell id="zVFIk7WlDwLkc0LG16KC-0" value="郵寄薪資條" style="ellipse;whiteSpace=wrap;html=1;" parent="168" vertex="1">
                    <mxGeometry x="30.49000000000001" width="120" height="50" as="geometry"/>
                </mxCell>
                <mxCell id="49" value="SMTP是否&lt;br&gt;連線成功?" style="rhombus;whiteSpace=wrap;html=1;shadow=0;fontFamily=Helvetica;fontSize=12;align=center;strokeWidth=1;spacing=6;spacingTop=-4;" parent="168" vertex="1">
                    <mxGeometry x="27.180000000000007" y="230.90999999999997" width="126.63" height="67.09" as="geometry"/>
                </mxCell>
                <mxCell id="84" value="連線 SMTP Server" style="rounded=0;whiteSpace=wrap;html=1;" parent="168" vertex="1">
                    <mxGeometry x="30.5" y="170" width="120" height="30" as="geometry"/>
                </mxCell>
                <mxCell id="118" style="edgeStyle=orthogonalEdgeStyle;rounded=0;orthogonalLoop=1;jettySize=auto;html=1;exitX=0.5;exitY=1;exitDx=0;exitDy=0;entryX=0.5;entryY=0;entryDx=0;entryDy=0;" parent="168" source="162" target="84" edge="1">
                    <mxGeometry relative="1" as="geometry"/>
                </mxCell>
                <mxCell id="121" style="edgeStyle=orthogonalEdgeStyle;rounded=0;orthogonalLoop=1;jettySize=auto;html=1;exitX=0.5;exitY=1;exitDx=0;exitDy=0;entryX=0.5;entryY=0;entryDx=0;entryDy=0;" parent="168" source="84" target="49" edge="1">
                    <mxGeometry relative="1" as="geometry"/>
                </mxCell>
                <mxCell id="89" value="&lt;span&gt;產生工號清單&lt;/span&gt;" style="rounded=0;whiteSpace=wrap;html=1;" parent="168" vertex="1">
                    <mxGeometry x="30.5" y="410" width="120" height="40" as="geometry"/>
                </mxCell>
                <mxCell id="100" value="log += SMTP&lt;br&gt;連線失敗" style="rounded=0;whiteSpace=wrap;html=1;" parent="168" vertex="1">
                    <mxGeometry x="210" y="244.45" width="85.99" height="40" as="geometry"/>
                </mxCell>
                <mxCell id="131" value="No" style="edgeStyle=orthogonalEdgeStyle;rounded=0;orthogonalLoop=1;jettySize=auto;html=1;exitX=1;exitY=0.5;exitDx=0;exitDy=0;entryX=0;entryY=0.5;entryDx=0;entryDy=0;" parent="168" source="49" target="100" edge="1">
                    <mxGeometry relative="1" as="geometry"/>
                </mxCell>
                <mxCell id="101" value="log += SMTP&lt;br&gt;連線成功" style="rounded=0;whiteSpace=wrap;html=1;" parent="168" vertex="1">
                    <mxGeometry x="47.49999999999997" y="337.09000000000003" width="85.99" height="40" as="geometry"/>
                </mxCell>
                <mxCell id="124" value="Yes" style="edgeStyle=orthogonalEdgeStyle;rounded=0;orthogonalLoop=1;jettySize=auto;html=1;exitX=0.5;exitY=1;exitDx=0;exitDy=0;entryX=0.5;entryY=0;entryDx=0;entryDy=0;" parent="168" source="49" target="101" edge="1">
                    <mxGeometry relative="1" as="geometry"/>
                </mxCell>
                <mxCell id="125" style="edgeStyle=orthogonalEdgeStyle;rounded=0;orthogonalLoop=1;jettySize=auto;html=1;exitX=0.5;exitY=1;exitDx=0;exitDy=0;entryX=0.5;entryY=0;entryDx=0;entryDy=0;" parent="168" source="101" target="89" edge="1">
                    <mxGeometry relative="1" as="geometry"/>
                </mxCell>
                <mxCell id="14" value="&lt;span style=&quot;font-size: 11px&quot;&gt;&lt;br&gt;第 i 項工號&lt;/span&gt;" style="text;html=1;align=center;verticalAlign=middle;resizable=0;points=[];autosize=1;" parent="168" vertex="1">
                    <mxGeometry x="25.499999999999943" y="481" width="70" height="30" as="geometry"/>
                </mxCell>
                <mxCell id="23" value="結束" style="ellipse;whiteSpace=wrap;html=1;" parent="168" vertex="1">
                    <mxGeometry x="359.49" y="39.999999999999886" width="100" height="50" as="geometry"/>
                </mxCell>
                <mxCell id="29" value="是否是清單中最&lt;br&gt;後一個項目?" style="rhombus;whiteSpace=wrap;html=1;shadow=0;fontFamily=Helvetica;fontSize=12;align=center;strokeWidth=1;spacing=6;spacingTop=-4;" parent="168" vertex="1">
                    <mxGeometry x="334.0099999999999" y="450" width="151" height="80" as="geometry"/>
                </mxCell>
                <mxCell id="153" value="No" style="edgeStyle=orthogonalEdgeStyle;rounded=0;orthogonalLoop=1;jettySize=auto;html=1;exitX=0;exitY=0.5;exitDx=0;exitDy=0;entryX=0.921;entryY=0.286;entryDx=0;entryDy=0;entryPerimeter=0;" parent="168" source="29" target="14" edge="1">
                    <mxGeometry x="-0.0247" y="-95" relative="1" as="geometry">
                        <Array as="points">
                            <mxPoint x="215" y="490"/>
                        </Array>
                        <mxPoint x="95" y="95" as="offset"/>
                    </mxGeometry>
                </mxCell>
                <mxCell id="33" style="edgeStyle=orthogonalEdgeStyle;rounded=0;orthogonalLoop=1;jettySize=auto;html=1;exitX=0.5;exitY=0;exitDx=0;exitDy=0;entryX=0.5;entryY=1;entryDx=0;entryDy=0;" parent="168" source="61" target="29" edge="1">
                    <mxGeometry relative="1" as="geometry"/>
                </mxCell>
                <mxCell id="64" value="Yes" style="edgeLabel;html=1;align=center;verticalAlign=middle;resizable=0;points=[];" parent="33" vertex="1" connectable="0">
                    <mxGeometry x="0.7722" y="-1" relative="1" as="geometry">
                        <mxPoint x="-1.02" y="112.28999999999999" as="offset"/>
                    </mxGeometry>
                </mxCell>
                <mxCell id="66" value="No" style="edgeStyle=orthogonalEdgeStyle;rounded=0;orthogonalLoop=1;jettySize=auto;html=1;exitX=1;exitY=0.5;exitDx=0;exitDy=0;" parent="168" source="15" edge="1">
                    <mxGeometry x="-0.8656" relative="1" as="geometry">
                        <mxPoint x="409.4999999999999" y="560" as="targetPoint"/>
                        <Array as="points">
                            <mxPoint x="549.4999999999999" y="875"/>
                            <mxPoint x="549.4999999999999" y="560"/>
                        </Array>
                        <mxPoint as="offset"/>
                    </mxGeometry>
                </mxCell>
                <mxCell id="15" value="郵件地址是否存在?" style="rhombus;whiteSpace=wrap;html=1;shadow=0;fontFamily=Helvetica;fontSize=12;align=center;strokeWidth=1;spacing=6;spacingTop=-4;" parent="168" vertex="1">
                    <mxGeometry x="346.17999999999995" y="841" width="126.63" height="67.09" as="geometry"/>
                </mxCell>
                <mxCell id="150" style="edgeStyle=orthogonalEdgeStyle;rounded=0;orthogonalLoop=1;jettySize=auto;html=1;exitX=0.5;exitY=0;exitDx=0;exitDy=0;entryX=0.5;entryY=1;entryDx=0;entryDy=0;" parent="168" source="90" target="15" edge="1">
                    <mxGeometry relative="1" as="geometry"/>
                </mxCell>
                <mxCell id="20" value="Yes" style="edgeStyle=orthogonalEdgeStyle;rounded=0;orthogonalLoop=1;jettySize=auto;html=1;exitX=0.5;exitY=0;exitDx=0;exitDy=0;entryX=0.5;entryY=1;entryDx=0;entryDy=0;" parent="168" source="15" edge="1">
                    <mxGeometry x="-0.262" relative="1" as="geometry">
                        <mxPoint x="409.4899999999999" y="801" as="targetPoint"/>
                        <mxPoint as="offset"/>
                    </mxGeometry>
                </mxCell>
                <mxCell id="61" value="郵件是否傳&lt;br&gt;送成功?" style="rhombus;whiteSpace=wrap;html=1;shadow=0;fontFamily=Helvetica;fontSize=12;align=center;strokeWidth=1;spacing=6;spacingTop=-4;" parent="168" vertex="1">
                    <mxGeometry x="346.18999999999994" y="670" width="126.63" height="67.09" as="geometry"/>
                </mxCell>
                <mxCell id="67" style="edgeStyle=orthogonalEdgeStyle;rounded=0;orthogonalLoop=1;jettySize=auto;html=1;exitX=0.5;exitY=0;exitDx=0;exitDy=0;entryX=0.5;entryY=1;entryDx=0;entryDy=0;" parent="168" target="61" edge="1">
                    <mxGeometry relative="1" as="geometry">
                        <mxPoint x="409.4899999999999" y="760" as="sourcePoint"/>
                        <mxPoint x="409.4999999999999" y="545" as="targetPoint"/>
                    </mxGeometry>
                </mxCell>
                <mxCell id="91" value="&lt;span&gt;依據郵件地址&lt;/span&gt;&lt;br&gt;&lt;span&gt;發送薪資條&lt;/span&gt;" style="rounded=0;whiteSpace=wrap;html=1;" parent="168" vertex="1">
                    <mxGeometry x="349.4999999999999" y="761" width="120" height="40" as="geometry"/>
                </mxCell>
                <mxCell id="161" style="edgeStyle=orthogonalEdgeStyle;rounded=0;orthogonalLoop=1;jettySize=auto;html=1;exitX=0.5;exitY=0;exitDx=0;exitDy=0;entryX=0.5;entryY=1;entryDx=0;entryDy=0;" parent="168" source="166" target="23" edge="1">
                    <mxGeometry relative="1" as="geometry"/>
                </mxCell>
                <mxCell id="92" value="SMTP 連線中斷" style="rounded=0;whiteSpace=wrap;html=1;" parent="168" vertex="1">
                    <mxGeometry x="349.4899999999999" y="244.45" width="120" height="40" as="geometry"/>
                </mxCell>
                <mxCell id="160" style="edgeStyle=orthogonalEdgeStyle;rounded=0;orthogonalLoop=1;jettySize=auto;html=1;exitX=1;exitY=0.5;exitDx=0;exitDy=0;entryX=0;entryY=0.5;entryDx=0;entryDy=0;" parent="168" source="100" target="92" edge="1">
                    <mxGeometry relative="1" as="geometry"/>
                </mxCell>
                <mxCell id="52" value="Yes" style="edgeStyle=orthogonalEdgeStyle;rounded=0;orthogonalLoop=1;jettySize=auto;html=1;exitX=0.5;exitY=0;exitDx=0;exitDy=0;entryX=0.5;entryY=1;entryDx=0;entryDy=0;" parent="168" source="29" target="92" edge="1">
                    <mxGeometry x="-0.5313" relative="1" as="geometry">
                        <mxPoint as="offset"/>
                        <mxPoint x="409.4999999999999" y="401" as="targetPoint"/>
                    </mxGeometry>
                </mxCell>
                <mxCell id="94" value="log += 郵件&lt;br&gt;傳遞成功" style="rounded=0;whiteSpace=wrap;html=1;" parent="168" vertex="1">
                    <mxGeometry x="362.01999999999987" y="590" width="94.99" height="40" as="geometry"/>
                </mxCell>
                <mxCell id="96" style="edgeStyle=orthogonalEdgeStyle;rounded=0;orthogonalLoop=1;jettySize=auto;html=1;exitX=1;exitY=0.5;exitDx=0;exitDy=0;" parent="168" source="61" edge="1">
                    <mxGeometry relative="1" as="geometry">
                        <mxPoint x="409.4999999999999" y="570" as="targetPoint"/>
                        <Array as="points">
                            <mxPoint x="492.4999999999999" y="704"/>
                            <mxPoint x="492.4999999999999" y="570"/>
                            <mxPoint x="409.4999999999999" y="570"/>
                        </Array>
                    </mxGeometry>
                </mxCell>
                <mxCell id="98" value="No" style="edgeLabel;html=1;align=center;verticalAlign=middle;resizable=0;points=[];" parent="96" vertex="1" connectable="0">
                    <mxGeometry x="-0.8333" y="7" relative="1" as="geometry">
                        <mxPoint x="9" y="0.3600000000000003" as="offset"/>
                    </mxGeometry>
                </mxCell>
                <mxCell id="97" value="log += 郵件&lt;br&gt;傳遞失敗" style="rounded=0;whiteSpace=wrap;html=1;" parent="168" vertex="1">
                    <mxGeometry x="449.4999999999999" y="638" width="90" height="40" as="geometry"/>
                </mxCell>
                <mxCell id="99" value="log += 郵件&lt;br&gt;傳遞失敗" style="rounded=0;whiteSpace=wrap;html=1;" parent="168" vertex="1">
                    <mxGeometry x="499.4999999999999" y="780" width="90" height="40" as="geometry"/>
                </mxCell>
                <mxCell id="FKV-xtnJU6xLtMLIbOXM-29" value="" style="edgeStyle=orthogonalEdgeStyle;rounded=0;orthogonalLoop=1;jettySize=auto;html=1;" parent="168" edge="1">
                    <mxGeometry relative="1" as="geometry">
                        <mxPoint x="90.49000000000024" y="571" as="sourcePoint"/>
                        <mxPoint x="91.06142857142868" y="600" as="targetPoint"/>
                    </mxGeometry>
                </mxCell>
                <mxCell id="FKV-xtnJU6xLtMLIbOXM-31" style="edgeStyle=orthogonalEdgeStyle;rounded=0;orthogonalLoop=1;jettySize=auto;html=1;exitX=0.5;exitY=1;exitDx=0;exitDy=0;entryX=0.5;entryY=0;entryDx=0;entryDy=0;" parent="168" target="75" edge="1">
                    <mxGeometry relative="1" as="geometry">
                        <mxPoint x="90.99000000000001" y="641" as="sourcePoint"/>
                        <mxPoint x="90.99000000000001" y="664" as="targetPoint"/>
                    </mxGeometry>
                </mxCell>
                <mxCell id="FKV-xtnJU6xLtMLIbOXM-35" style="edgeStyle=orthogonalEdgeStyle;rounded=0;orthogonalLoop=1;jettySize=auto;html=1;exitX=0.5;exitY=1;exitDx=0;exitDy=0;entryX=0.5;entryY=0;entryDx=0;entryDy=0;" parent="168" target="80" edge="1">
                    <mxGeometry relative="1" as="geometry">
                        <mxPoint x="90.99000000000001" y="861" as="sourcePoint"/>
                        <mxPoint x="90.99000000000001" y="900" as="targetPoint"/>
                    </mxGeometry>
                </mxCell>
                <mxCell id="FKV-xtnJU6xLtMLIbOXM-33" style="edgeStyle=orthogonalEdgeStyle;rounded=0;orthogonalLoop=1;jettySize=auto;html=1;exitX=0.5;exitY=1;exitDx=0;exitDy=0;entryX=0.5;entryY=0;entryDx=0;entryDy=0;" parent="168" edge="1">
                    <mxGeometry relative="1" as="geometry">
                        <mxPoint x="90.99000000000001" y="781" as="sourcePoint"/>
                        <mxPoint x="90.99000000000001" y="820" as="targetPoint"/>
                    </mxGeometry>
                </mxCell>
                <mxCell id="1wFqCfojVXi2rWnY2ndf-12" style="edgeStyle=orthogonalEdgeStyle;rounded=0;orthogonalLoop=1;jettySize=auto;html=1;exitX=0.5;exitY=1;exitDx=0;exitDy=0;entryX=0.5;entryY=0;entryDx=0;entryDy=0;" parent="168" edge="1">
                    <mxGeometry relative="1" as="geometry">
                        <mxPoint x="90.99000000000001" y="705" as="sourcePoint"/>
                        <mxPoint x="90.99000000000001" y="740" as="targetPoint"/>
                    </mxGeometry>
                </mxCell>
                <mxCell id="73" value="&lt;span&gt;依據工號取得員工資料、員工薪資單頭及單身資料&lt;/span&gt;" style="rounded=0;whiteSpace=wrap;html=1;" parent="168" vertex="1">
                    <mxGeometry x="20.49000000000001" y="520" width="140" height="50" as="geometry"/>
                </mxCell>
                <mxCell id="157" style="edgeStyle=orthogonalEdgeStyle;rounded=0;orthogonalLoop=1;jettySize=auto;html=1;exitX=0.5;exitY=1;exitDx=0;exitDy=0;entryX=0.5;entryY=0;entryDx=0;entryDy=0;" parent="168" source="89" target="73" edge="1">
                    <mxGeometry relative="1" as="geometry"/>
                </mxCell>
                <mxCell id="74" value="&lt;span&gt;判斷津貼扣款正負值&lt;/span&gt;" style="rounded=0;whiteSpace=wrap;html=1;" parent="168" vertex="1">
                    <mxGeometry x="30.49000000000001" y="601" width="120" height="40" as="geometry"/>
                </mxCell>
                <mxCell id="75" value="&lt;span&gt;產生薪資條&lt;/span&gt;" style="rounded=0;whiteSpace=wrap;html=1;" parent="168" vertex="1">
                    <mxGeometry x="30.99000000000001" y="673.09" width="120" height="35" as="geometry"/>
                </mxCell>
                <mxCell id="78" value="&lt;span&gt;建立檔案名稱&lt;/span&gt;" style="rounded=0;whiteSpace=wrap;html=1;" parent="168" vertex="1">
                    <mxGeometry x="30.49000000000001" y="740" width="120" height="40" as="geometry"/>
                </mxCell>
                <mxCell id="79" value="將薪資條轉換成PDF" style="rounded=0;whiteSpace=wrap;html=1;" parent="168" vertex="1">
                    <mxGeometry x="30.49000000000001" y="820" width="120" height="40" as="geometry"/>
                </mxCell>
                <mxCell id="80" value="&lt;span&gt;檔案加密&lt;/span&gt;" style="rounded=0;whiteSpace=wrap;html=1;" parent="168" vertex="1">
                    <mxGeometry x="30.99000000000001" y="940" width="120" height="40" as="geometry"/>
                </mxCell>
                <mxCell id="141" style="edgeStyle=orthogonalEdgeStyle;rounded=0;orthogonalLoop=1;jettySize=auto;html=1;exitX=1;exitY=0.5;exitDx=0;exitDy=0;entryX=0;entryY=0.5;entryDx=0;entryDy=0;" parent="168" source="80" target="90" edge="1">
                    <mxGeometry relative="1" as="geometry"/>
                </mxCell>
                <mxCell id="162" value="log = ' 開始'" style="rounded=0;whiteSpace=wrap;html=1;" vertex="1" parent="168">
                    <mxGeometry x="30.49000000000001" y="100" width="120" height="30" as="geometry"/>
                </mxCell>
                <mxCell id="163" style="edgeStyle=orthogonalEdgeStyle;rounded=0;orthogonalLoop=1;jettySize=auto;html=1;exitX=0.5;exitY=1;exitDx=0;exitDy=0;entryX=0.5;entryY=0;entryDx=0;entryDy=0;" edge="1" parent="168" source="zVFIk7WlDwLkc0LG16KC-0" target="162">
                    <mxGeometry relative="1" as="geometry">
                        <mxPoint x="90.49000000000001" y="50" as="sourcePoint"/>
                        <mxPoint x="90.49999999999977" y="170" as="targetPoint"/>
                    </mxGeometry>
                </mxCell>
                <mxCell id="164" value="log += '結束 '" style="rounded=0;whiteSpace=wrap;html=1;" vertex="1" parent="168">
                    <mxGeometry x="349.51" y="190" width="120" height="30" as="geometry"/>
                </mxCell>
                <mxCell id="165" style="edgeStyle=orthogonalEdgeStyle;rounded=0;orthogonalLoop=1;jettySize=auto;html=1;exitX=0.5;exitY=0;exitDx=0;exitDy=0;entryX=0.5;entryY=1;entryDx=0;entryDy=0;" edge="1" parent="168" source="92" target="164">
                    <mxGeometry relative="1" as="geometry">
                        <mxPoint x="409.4899999999998" y="244.45000000000005" as="sourcePoint"/>
                        <mxPoint x="409.49000000000024" y="130" as="targetPoint"/>
                    </mxGeometry>
                </mxCell>
                <mxCell id="166" value="回傳 log" style="rounded=0;whiteSpace=wrap;html=1;" vertex="1" parent="168">
                    <mxGeometry x="349.49" y="120" width="120" height="30" as="geometry"/>
                </mxCell>
                <mxCell id="167" style="edgeStyle=orthogonalEdgeStyle;rounded=0;orthogonalLoop=1;jettySize=auto;html=1;exitX=0.5;exitY=0;exitDx=0;exitDy=0;entryX=0.5;entryY=1;entryDx=0;entryDy=0;" edge="1" parent="168" source="164" target="166">
                    <mxGeometry relative="1" as="geometry">
                        <mxPoint x="409.51" y="180" as="sourcePoint"/>
                        <mxPoint x="409.49" y="100" as="targetPoint"/>
                    </mxGeometry>
                </mxCell>
            </root>
        </mxGraphModel>
    </diagram>
</mxfile>